<svg width="3755" height="1275" viewBox="0 0 3755 1275" fill="none" xmlns="http://www.w3.org/2000/svg">
<path d="M1558.4 826C1536.8 826 1516.53 821.867 1497.6 813.6C1478.93 805.333 1462.4 793.867 1448 779.2C1433.87 764.267 1422.8 747.2 1414.8 728C1406.8 708.533 1402.8 687.733 1402.8 665.6C1402.8 643.733 1406.67 623.2 1414.4 604C1422.4 584.533 1433.47 567.467 1447.6 552.8C1462 538.133 1478.53 526.667 1497.2 518.4C1516.13 509.867 1536.53 505.6 1558.4 505.6C1577.6 505.6 1595.07 508.4 1610.8 514C1626.53 519.6 1641.73 528.533 1656.4 540.8C1658.8 542.667 1660.13 544.933 1660.4 547.6C1660.93 550 1660.67 552.4 1659.6 554.8C1658.53 556.933 1656.93 558.533 1654.8 559.6C1654.27 561.733 1652.93 563.333 1650.8 564.4C1648.67 565.467 1646.13 565.867 1643.2 565.6C1640.53 565.333 1637.87 564.133 1635.2 562C1624.8 552.933 1613.47 546.267 1601.2 542C1588.93 537.467 1574.67 535.2 1558.4 535.2C1541.07 535.2 1524.8 538.667 1509.6 545.6C1494.67 552.533 1481.47 562 1470 574C1458.53 586 1449.47 599.867 1442.8 615.6C1436.4 631.333 1433.2 648 1433.2 665.6C1433.2 683.733 1436.4 700.667 1442.8 716.4C1449.47 732.133 1458.53 746 1470 758C1481.47 770 1494.67 779.467 1509.6 786.4C1524.8 793.067 1541.07 796.4 1558.4 796.4C1573.07 796.4 1586.93 794 1600 789.2C1613.07 784.4 1625.47 777.467 1637.2 768.4C1640.4 765.733 1643.73 764.667 1647.2 765.2C1650.93 765.733 1654.13 767.333 1656.8 770C1659.47 772.667 1660.8 776.133 1660.8 780.4C1660.8 782.533 1660.53 784.533 1660 786.4C1659.47 788 1658.27 789.733 1656.4 791.6C1642.8 804.133 1627.6 813.067 1610.8 818.4C1594 823.467 1576.53 826 1558.4 826ZM1660.8 780.4L1630.4 774V693.6H1568C1563.47 693.6 1559.73 692.267 1556.8 689.6C1553.87 686.933 1552.4 683.6 1552.4 679.6C1552.4 675.6 1553.87 672.4 1556.8 670C1559.73 667.333 1563.47 666 1568 666H1645.2C1649.73 666 1653.47 667.467 1656.4 670.4C1659.33 673.067 1660.8 676.667 1660.8 681.2V780.4ZM1804.62 824C1783.28 824 1764.22 819.2 1747.42 809.6C1730.62 800 1717.42 786.8 1707.82 770C1698.22 753.2 1693.42 734.133 1693.42 712.8C1693.42 691.2 1698.22 672 1707.82 655.2C1717.42 638.4 1730.62 625.2 1747.42 615.6C1764.22 606 1783.28 601.2 1804.62 601.2C1825.95 601.2 1844.88 606 1861.42 615.6C1878.22 625.2 1891.42 638.4 1901.02 655.2C1910.62 672 1915.55 691.2 1915.82 712.8C1915.82 734.133 1910.88 753.2 1901.02 770C1891.42 786.8 1878.22 800 1861.42 809.6C1844.88 819.2 1825.95 824 1804.62 824ZM1804.62 796C1820.08 796 1833.95 792.4 1846.22 785.2C1858.48 778 1868.08 768.133 1875.02 755.6C1881.95 743.067 1885.42 728.8 1885.42 712.8C1885.42 696.8 1881.95 682.533 1875.02 670C1868.08 657.2 1858.48 647.2 1846.22 640C1833.95 632.8 1820.08 629.2 1804.62 629.2C1789.15 629.2 1775.28 632.8 1763.02 640C1750.75 647.2 1741.02 657.2 1733.82 670C1726.88 682.533 1723.42 696.8 1723.42 712.8C1723.42 728.8 1726.88 743.067 1733.82 755.6C1741.02 768.133 1750.75 778 1763.02 785.2C1775.28 792.4 1789.15 796 1804.62 796ZM1995.32 822C1991.05 822 1987.32 820.533 1984.12 817.6C1981.19 814.4 1979.72 810.667 1979.72 806.4V525.2C1979.72 520.667 1981.19 516.933 1984.12 514C1987.32 511.067 1991.05 509.6 1995.32 509.6C2001.72 509.6 2006.39 512.267 2009.32 517.6L2144.12 785.6H2130.52L2262.92 517.6C2266.12 512.267 2270.79 509.6 2276.92 509.6C2281.19 509.6 2284.79 511.067 2287.72 514C2290.65 516.933 2292.12 520.667 2292.12 525.2V806.4C2292.12 810.667 2290.65 814.4 2287.72 817.6C2284.79 820.533 2281.19 822 2276.92 822C2272.39 822 2268.52 820.533 2265.32 817.6C2262.39 814.4 2260.92 810.667 2260.92 806.4V565.6L2267.72 566L2149.72 807.2C2146.79 812.267 2142.25 814.8 2136.12 814.8C2129.45 814.8 2124.65 811.6 2121.72 805.2L2002.92 567.6L2010.92 565.6V806.4C2010.92 810.667 2009.32 814.4 2006.12 817.6C2003.19 820.533 1999.59 822 1995.32 822ZM2464.7 824C2444.16 824 2425.76 819.2 2409.5 809.6C2393.23 799.733 2380.3 786.4 2370.7 769.6C2361.36 752.8 2356.7 733.867 2356.7 712.8C2356.7 691.467 2361.5 672.4 2371.1 655.6C2380.96 638.8 2394.3 625.6 2411.1 616C2427.9 606.133 2446.83 601.2 2467.9 601.2C2488.96 601.2 2507.76 606.133 2524.3 616C2541.1 625.6 2554.3 638.8 2563.9 655.6C2573.76 672.4 2578.83 691.467 2579.1 712.8L2566.7 722.4C2566.7 741.6 2562.16 758.933 2553.1 774.4C2544.3 789.6 2532.16 801.733 2516.7 810.8C2501.5 819.6 2484.16 824 2464.7 824ZM2467.9 796C2483.36 796 2497.1 792.4 2509.1 785.2C2521.36 778 2530.96 768.133 2537.9 755.6C2545.1 742.8 2548.7 728.533 2548.7 712.8C2548.7 696.8 2545.1 682.533 2537.9 670C2530.96 657.467 2521.36 647.6 2509.1 640.4C2497.1 632.933 2483.36 629.2 2467.9 629.2C2452.7 629.2 2438.96 632.933 2426.7 640.4C2414.43 647.6 2404.7 657.467 2397.5 670C2390.3 682.533 2386.7 696.8 2386.7 712.8C2386.7 728.533 2390.3 742.8 2397.5 755.6C2404.7 768.133 2414.43 778 2426.7 785.2C2438.96 792.4 2452.7 796 2467.9 796ZM2563.5 822C2558.96 822 2555.23 820.667 2552.3 818C2549.36 815.067 2547.9 811.333 2547.9 806.8V738.4L2555.5 706.8L2579.1 712.8V806.8C2579.1 811.333 2577.63 815.067 2574.7 818C2571.76 820.667 2568.03 822 2563.5 822ZM2826.6 822C2822.07 822 2818.33 820.533 2815.4 817.6C2812.47 814.667 2811 811.067 2811 806.8V702.8C2811 686.267 2807.8 672.667 2801.4 662C2795.27 651.333 2786.73 643.333 2775.8 638C2765.13 632.667 2753 630 2739.4 630C2726.33 630 2714.47 632.533 2703.8 637.6C2693.4 642.667 2685.13 649.6 2679 658.4C2672.87 667.2 2669.8 677.2 2669.8 688.4H2647.8C2648.33 671.6 2652.87 656.667 2661.4 643.6C2669.93 630.267 2681.27 619.867 2695.4 612.4C2709.53 604.667 2725.27 600.8 2742.6 600.8C2761.53 600.8 2778.47 604.8 2793.4 612.8C2808.33 620.533 2820.07 632 2828.6 647.2C2837.4 662.4 2841.8 680.933 2841.8 702.8V806.8C2841.8 811.067 2840.33 814.667 2837.4 817.6C2834.47 820.533 2830.87 822 2826.6 822ZM2654.6 822C2649.8 822 2645.93 820.667 2643 818C2640.33 815.067 2639 811.333 2639 806.8V618.8C2639 614 2640.33 610.267 2643 607.6C2645.93 604.667 2649.8 603.2 2654.6 603.2C2659.13 603.2 2662.73 604.667 2665.4 607.6C2668.33 610.267 2669.8 614 2669.8 618.8V806.8C2669.8 811.333 2668.33 815.067 2665.4 818C2662.73 820.667 2659.13 822 2654.6 822ZM3054.1 826C3032.5 826 3012.24 821.867 2993.3 813.6C2974.64 805.333 2958.1 793.867 2943.7 779.2C2929.57 764.267 2918.5 747.2 2910.5 728C2902.5 708.533 2898.5 687.733 2898.5 665.6C2898.5 643.733 2902.37 623.2 2910.1 604C2918.1 584.533 2929.17 567.467 2943.3 552.8C2957.7 538.133 2974.24 526.667 2992.9 518.4C3011.84 509.867 3032.24 505.6 3054.1 505.6C3073.3 505.6 3090.77 508.4 3106.5 514C3122.24 519.6 3137.44 528.533 3152.1 540.8C3154.5 542.667 3155.84 544.933 3156.1 547.6C3156.64 550 3156.37 552.4 3155.3 554.8C3154.24 556.933 3152.64 558.533 3150.5 559.6C3149.97 561.733 3148.64 563.333 3146.5 564.4C3144.37 565.467 3141.84 565.867 3138.9 565.6C3136.24 565.333 3133.57 564.133 3130.9 562C3120.5 552.933 3109.17 546.267 3096.9 542C3084.64 537.467 3070.37 535.2 3054.1 535.2C3036.77 535.2 3020.5 538.667 3005.3 545.6C2990.37 552.533 2977.17 562 2965.7 574C2954.24 586 2945.17 599.867 2938.5 615.6C2932.1 631.333 2928.9 648 2928.9 665.6C2928.9 683.733 2932.1 700.667 2938.5 716.4C2945.17 732.133 2954.24 746 2965.7 758C2977.17 770 2990.37 779.467 3005.3 786.4C3020.5 793.067 3036.77 796.4 3054.1 796.4C3068.77 796.4 3082.64 794 3095.7 789.2C3108.77 784.4 3121.17 777.467 3132.9 768.4C3136.1 765.733 3139.44 764.667 3142.9 765.2C3146.64 765.733 3149.84 767.333 3152.5 770C3155.17 772.667 3156.5 776.133 3156.5 780.4C3156.5 782.533 3156.24 784.533 3155.7 786.4C3155.17 788 3153.97 789.733 3152.1 791.6C3138.5 804.133 3123.3 813.067 3106.5 818.4C3089.7 823.467 3072.24 826 3054.1 826ZM3156.5 780.4L3126.1 774V693.6H3063.7C3059.17 693.6 3055.44 692.267 3052.5 689.6C3049.57 686.933 3048.1 683.6 3048.1 679.6C3048.1 675.6 3049.57 672.4 3052.5 670C3055.44 667.333 3059.17 666 3063.7 666H3140.9C3145.44 666 3149.17 667.467 3152.1 670.4C3155.04 673.067 3156.5 676.667 3156.5 681.2V780.4ZM3300.32 824C3278.99 824 3259.92 819.2 3243.12 809.6C3226.32 800 3213.12 786.8 3203.52 770C3193.92 753.2 3189.12 734.133 3189.12 712.8C3189.12 691.2 3193.92 672 3203.52 655.2C3213.12 638.4 3226.32 625.2 3243.12 615.6C3259.92 606 3278.99 601.2 3300.32 601.2C3321.65 601.2 3340.59 606 3357.12 615.6C3373.92 625.2 3387.12 638.4 3396.72 655.2C3406.32 672 3411.25 691.2 3411.52 712.8C3411.52 734.133 3406.59 753.2 3396.72 770C3387.12 786.8 3373.92 800 3357.12 809.6C3340.59 819.2 3321.65 824 3300.32 824ZM3300.32 796C3315.79 796 3329.65 792.4 3341.92 785.2C3354.19 778 3363.79 768.133 3370.72 755.6C3377.65 743.067 3381.12 728.8 3381.12 712.8C3381.12 696.8 3377.65 682.533 3370.72 670C3363.79 657.2 3354.19 647.2 3341.92 640C3329.65 632.8 3315.79 629.2 3300.32 629.2C3284.85 629.2 3270.99 632.8 3258.72 640C3246.45 647.2 3236.72 657.2 3229.52 670C3222.59 682.533 3219.12 696.8 3219.12 712.8C3219.12 728.8 3222.59 743.067 3229.52 755.6C3236.72 768.133 3246.45 778 3258.72 785.2C3270.99 792.4 3284.85 796 3300.32 796ZM1514 1272C1496.93 1272 1481.07 1269.6 1466.4 1264.8C1452 1259.73 1439.47 1252.67 1428.8 1243.6C1418.13 1234.53 1410 1224 1404.4 1212C1402.27 1207.73 1402.13 1203.87 1404 1200.4C1406.13 1196.67 1409.6 1194.13 1414.4 1192.8C1418.13 1191.73 1421.73 1192.13 1425.2 1194C1428.93 1195.87 1431.73 1198.67 1433.6 1202.4C1437.6 1210.13 1443.47 1217.07 1451.2 1223.2C1458.93 1229.33 1468.13 1234.13 1478.8 1237.6C1489.47 1240.8 1501.2 1242.4 1514 1242.4C1528.13 1242.4 1540.67 1240.13 1551.6 1235.6C1562.53 1230.8 1571.07 1224 1577.2 1215.2C1583.6 1206.13 1586.8 1195.2 1586.8 1182.4C1586.8 1166.13 1580.8 1152.13 1568.8 1140.4C1556.8 1128.67 1538 1121.2 1512.4 1118C1481.2 1114.27 1456.8 1104.67 1439.2 1089.2C1421.6 1073.47 1412.8 1054.27 1412.8 1031.6C1412.8 1015.33 1417.07 1001.2 1425.6 989.2C1434.4 977.2 1446.4 968 1461.6 961.6C1476.8 954.933 1494.27 951.6 1514 951.6C1528.67 951.6 1542 954 1554 958.8C1566 963.333 1576.4 969.467 1585.2 977.2C1594.27 984.667 1601.6 992.933 1607.2 1002C1609.87 1006.27 1610.67 1010.4 1609.6 1014.4C1608.8 1018.4 1606.53 1021.47 1602.8 1023.6C1598.8 1025.47 1594.67 1025.73 1590.4 1024.4C1586.4 1023.07 1583.33 1020.53 1581.2 1016.8C1577.2 1010.67 1572.13 1004.93 1566 999.6C1560.13 994 1552.93 989.6 1544.4 986.4C1535.87 983.2 1525.6 981.467 1513.6 981.2C1492.53 981.2 1475.6 985.733 1462.8 994.8C1450 1003.6 1443.6 1016.53 1443.6 1033.6C1443.6 1042.67 1446 1051.07 1450.8 1058.8C1455.6 1066.27 1463.47 1072.8 1474.4 1078.4C1485.6 1083.73 1500.53 1087.73 1519.2 1090.4C1552.53 1095.2 1577.2 1105.47 1593.2 1121.2C1609.47 1136.67 1617.6 1156.93 1617.6 1182C1617.6 1196.4 1614.93 1209.2 1609.6 1220.4C1604.53 1231.6 1597.2 1241.07 1587.6 1248.8C1578.27 1256.27 1567.2 1262 1554.4 1266C1541.87 1270 1528.4 1272 1514 1272ZM1764.44 1268C1750.31 1268 1737.64 1264.67 1726.44 1258C1715.51 1251.33 1706.84 1242.27 1700.44 1230.8C1694.04 1219.07 1690.84 1205.73 1690.84 1190.8V995.2C1690.84 990.667 1692.18 986.933 1694.84 984C1697.78 981.067 1701.51 979.6 1706.04 979.6C1710.58 979.6 1714.31 981.067 1717.24 984C1720.18 986.933 1721.64 990.667 1721.64 995.2V1190.8C1721.64 1204.4 1725.64 1215.6 1733.64 1224.4C1741.64 1232.93 1751.91 1237.2 1764.44 1237.2H1775.24C1779.51 1237.2 1782.98 1238.67 1785.64 1241.6C1788.31 1244.53 1789.64 1248.27 1789.64 1252.8C1789.64 1257.33 1788.04 1261.07 1784.84 1264C1781.64 1266.67 1777.64 1268 1772.84 1268H1764.44ZM1664.84 1084C1660.84 1084 1657.51 1082.8 1654.84 1080.4C1652.18 1077.73 1650.84 1074.53 1650.84 1070.8C1650.84 1066.8 1652.18 1063.6 1654.84 1061.2C1657.51 1058.53 1660.84 1057.2 1664.84 1057.2H1766.84C1770.84 1057.2 1774.18 1058.53 1776.84 1061.2C1779.51 1063.6 1780.84 1066.8 1780.84 1070.8C1780.84 1074.53 1779.51 1077.73 1776.84 1080.4C1774.18 1082.8 1770.84 1084 1766.84 1084H1664.84ZM1934.98 1270.4C1916.05 1270.4 1899.11 1266.53 1884.18 1258.8C1869.25 1250.8 1857.38 1239.2 1848.58 1224C1840.05 1208.8 1835.78 1190.27 1835.78 1168.4V1064.4C1835.78 1060.13 1837.25 1056.53 1840.18 1053.6C1843.11 1050.67 1846.71 1049.2 1850.98 1049.2C1855.51 1049.2 1859.25 1050.67 1862.18 1053.6C1865.11 1056.53 1866.58 1060.13 1866.58 1064.4V1168.4C1866.58 1184.93 1869.65 1198.53 1875.78 1209.2C1882.18 1219.87 1890.71 1227.87 1901.38 1233.2C1912.31 1238.53 1924.58 1241.2 1938.18 1241.2C1951.25 1241.2 1962.98 1238.67 1973.38 1233.6C1984.05 1228.53 1992.45 1221.6 1998.58 1212.8C2004.71 1204 2007.78 1194 2007.78 1182.8H2029.78C2028.98 1199.6 2024.31 1214.67 2015.78 1228C2007.51 1241.07 1996.31 1251.47 1982.18 1259.2C1968.05 1266.67 1952.31 1270.4 1934.98 1270.4ZM2022.98 1268C2018.45 1268 2014.71 1266.67 2011.78 1264C2009.11 1261.07 2007.78 1257.2 2007.78 1252.4V1064.4C2007.78 1059.87 2009.11 1056.27 2011.78 1053.6C2014.71 1050.67 2018.45 1049.2 2022.98 1049.2C2027.51 1049.2 2031.25 1050.67 2034.18 1053.6C2037.11 1056.27 2038.58 1059.87 2038.58 1064.4V1252.4C2038.58 1257.2 2037.11 1261.07 2034.18 1264C2031.25 1266.67 2027.51 1268 2022.98 1268ZM2210.08 1270C2189.02 1270 2170.08 1265.2 2153.28 1255.6C2136.48 1245.73 2123.15 1232.4 2113.28 1215.6C2103.68 1198.8 2098.88 1179.73 2098.88 1158.4C2098.88 1137.33 2103.55 1118.4 2112.88 1101.6C2122.48 1084.8 2135.42 1071.6 2151.68 1062C2167.95 1052.13 2186.35 1047.2 2206.88 1047.2C2224.75 1047.2 2240.88 1051.07 2255.28 1058.8C2269.68 1066.27 2281.28 1076.27 2290.08 1088.8V971.2C2290.08 966.4 2291.55 962.667 2294.48 960C2297.42 957.067 2301.15 955.6 2305.68 955.6C2310.22 955.6 2313.95 957.067 2316.88 960C2319.82 962.667 2321.28 966.4 2321.28 971.2V1160C2320.75 1180.8 2315.55 1199.6 2305.68 1216.4C2296.08 1232.93 2282.88 1246 2266.08 1255.6C2249.55 1265.2 2230.88 1270 2210.08 1270ZM2210.08 1242C2225.55 1242 2239.28 1238.4 2251.28 1231.2C2263.55 1223.73 2273.15 1213.73 2280.08 1201.2C2287.28 1188.67 2290.88 1174.4 2290.88 1158.4C2290.88 1142.67 2287.28 1128.53 2280.08 1116C2273.15 1103.2 2263.55 1093.2 2251.28 1086C2239.28 1078.8 2225.55 1075.2 2210.08 1075.2C2194.88 1075.2 2181.15 1078.8 2168.88 1086C2156.62 1093.2 2146.88 1103.2 2139.68 1116C2132.48 1128.53 2128.88 1142.67 2128.88 1158.4C2128.88 1174.4 2132.48 1188.67 2139.68 1201.2C2146.88 1213.73 2156.62 1223.73 2168.88 1231.2C2181.15 1238.4 2194.88 1242 2210.08 1242ZM2415.3 1268C2410.5 1268 2406.63 1266.67 2403.7 1264C2401.03 1261.07 2399.7 1257.2 2399.7 1252.4V1064.8C2399.7 1060 2401.03 1056.27 2403.7 1053.6C2406.63 1050.67 2410.5 1049.2 2415.3 1049.2C2419.83 1049.2 2423.43 1050.67 2426.1 1053.6C2429.03 1056.27 2430.5 1060 2430.5 1064.8V1252.4C2430.5 1257.2 2429.03 1261.07 2426.1 1264C2423.43 1266.67 2419.83 1268 2415.3 1268ZM2414.9 1007.6C2409.03 1007.6 2403.96 1005.47 2399.7 1001.2C2395.43 996.933 2393.3 991.733 2393.3 985.6C2393.3 978.933 2395.43 973.733 2399.7 970C2404.23 966 2409.43 964 2415.3 964C2420.9 964 2425.83 966 2430.1 970C2434.63 973.733 2436.9 978.933 2436.9 985.6C2436.9 991.733 2434.76 996.933 2430.5 1001.2C2426.23 1005.47 2421.03 1007.6 2414.9 1007.6ZM2608.52 1270C2587.19 1270 2568.12 1265.2 2551.32 1255.6C2534.52 1246 2521.32 1232.8 2511.72 1216C2502.12 1199.2 2497.32 1180.13 2497.32 1158.8C2497.32 1137.2 2502.12 1118 2511.72 1101.2C2521.32 1084.4 2534.52 1071.2 2551.32 1061.6C2568.12 1052 2587.19 1047.2 2608.52 1047.2C2629.86 1047.2 2648.79 1052 2665.32 1061.6C2682.12 1071.2 2695.32 1084.4 2704.92 1101.2C2714.52 1118 2719.46 1137.2 2719.72 1158.8C2719.72 1180.13 2714.79 1199.2 2704.92 1216C2695.32 1232.8 2682.12 1246 2665.32 1255.6C2648.79 1265.2 2629.86 1270 2608.52 1270ZM2608.52 1242C2623.99 1242 2637.86 1238.4 2650.12 1231.2C2662.39 1224 2671.99 1214.13 2678.92 1201.6C2685.86 1189.07 2689.32 1174.8 2689.32 1158.8C2689.32 1142.8 2685.86 1128.53 2678.92 1116C2671.99 1103.2 2662.39 1093.2 2650.12 1086C2637.86 1078.8 2623.99 1075.2 2608.52 1075.2C2593.06 1075.2 2579.19 1078.8 2566.92 1086C2554.66 1093.2 2544.92 1103.2 2537.72 1116C2530.79 1128.53 2527.32 1142.8 2527.32 1158.8C2527.32 1174.8 2530.79 1189.07 2537.72 1201.6C2544.92 1214.13 2554.66 1224 2566.92 1231.2C2579.19 1238.4 2593.06 1242 2608.52 1242ZM2786.83 1274.4C2780.43 1274.4 2774.96 1272.13 2770.43 1267.6C2765.89 1263.07 2763.63 1257.6 2763.63 1251.2C2763.63 1244.53 2765.89 1238.93 2770.43 1234.4C2775.23 1229.87 2780.69 1227.6 2786.83 1227.6C2793.23 1227.6 2798.69 1230 2803.23 1234.8C2807.76 1239.33 2810.03 1244.8 2810.03 1251.2C2810.03 1257.33 2807.76 1262.8 2803.23 1267.6C2798.96 1272.13 2793.49 1274.4 2786.83 1274.4Z" fill="black"/>
<path d="M947.5 13H1234C1247.81 13 1259 24.1929 1259 38V1234C1259 1247.81 1247.81 1259 1234 1259H947.5M324.5 13H38C24.1929 13 13 24.1929 13 38V1234C13 1247.81 24.1929 1259 38 1259H324.5" stroke="black" stroke-width="25"/>
<path d="M24.5356 22.4644L339.536 337.464L418.286 416.214" stroke="black" stroke-width="25"/>
<path d="M1251.46 1250.53L939.853 938.873L861.951 860.957L823 822" stroke="black" stroke-width="25"/>
<circle cx="618.5" cy="618.5" r="278" stroke="black" stroke-width="25"/>
</svg>
