<svg width="100%" style="" viewBox="0 0 4864 1486" fill="none" xmlns="http://www.w3.org/2000/svg">
<path d="M3067.37 547.5C3057.21 547.5 3048.79 546.083 3042.12 543.25C3035.62 540.417 3030.46 536.917 3026.62 532.75C3022.79 528.417 3019.96 524.167 3018.12 520C3016.29 515.667 3015.12 512.083 3014.62 509.25C3014.12 506.417 3013.87 505 3013.87 505H3037.87C3037.87 505 3038.12 506.167 3038.62 508.5C3039.29 510.667 3040.54 513.25 3042.37 516.25C3044.37 519.083 3047.37 521.667 3051.37 524C3055.54 526.167 3061.04 527.25 3067.87 527.25C3075.71 527.25 3081.79 525.417 3086.12 521.75C3090.46 517.917 3092.62 513.25 3092.62 507.75C3092.62 502.917 3090.87 499.083 3087.37 496.25C3084.04 493.417 3079.21 491.25 3072.87 489.75L3054.87 485.5C3048.21 483.833 3041.96 481.583 3036.12 478.75C3030.29 475.917 3025.54 472.083 3021.87 467.25C3018.37 462.25 3016.62 456.083 3016.62 448.75C3016.62 437.417 3020.87 428.167 3029.37 421C3037.87 413.667 3048.96 410 3062.62 410C3071.79 410 3079.37 411.333 3085.37 414C3091.37 416.5 3096.12 419.667 3099.62 423.5C3103.29 427.333 3105.96 431.167 3107.62 435C3109.46 438.833 3110.62 442.083 3111.12 444.75C3111.62 447.25 3111.87 448.5 3111.87 448.5H3088.87C3088.87 448.5 3088.62 447.583 3088.12 445.75C3087.62 443.75 3086.46 441.583 3084.62 439.25C3082.96 436.75 3080.37 434.583 3076.87 432.75C3073.37 430.75 3068.71 429.75 3062.87 429.75C3054.87 429.75 3049.04 431.583 3045.37 435.25C3041.71 438.917 3039.87 442.917 3039.87 447.25C3039.87 451.417 3041.54 454.833 3044.87 457.5C3048.37 460 3052.87 461.917 3058.37 463.25L3076.62 467.5C3087.96 470.167 3097.29 474.583 3104.62 480.75C3112.12 486.75 3115.87 495.417 3115.87 506.75C3115.87 514.083 3113.96 520.917 3110.12 527.25C3106.29 533.417 3100.79 538.333 3093.62 542C3086.46 545.667 3077.71 547.5 3067.37 547.5ZM3199.64 547.5C3185.97 547.5 3175.64 544 3168.64 537C3161.8 530 3158.39 520.167 3158.39 507.5V432H3134.64V412.5H3158.39V379.25H3182.14V412.5H3214.39V432H3182.14V507.5C3182.14 514.167 3183.97 519.083 3187.64 522.25C3191.3 525.25 3196.64 526.75 3203.64 526.75C3207.3 526.75 3210.8 526.5 3214.14 526C3217.47 525.5 3219.14 525.25 3219.14 525.25V545.5C3219.14 545.5 3217.22 545.833 3213.39 546.5C3209.55 547.167 3204.97 547.5 3199.64 547.5ZM3293.57 547.5C3280.4 547.5 3269.9 543.417 3262.07 535.25C3254.24 527.083 3250.32 515.75 3250.32 501.25V412.5H3274.07V500C3274.07 508.667 3276.4 515.333 3281.07 520C3285.9 524.667 3292.24 527 3300.07 527C3308.07 527 3314.49 524.917 3319.32 520.75C3324.15 516.583 3327.65 511.25 3329.82 504.75C3331.99 498.25 3333.07 491.583 3333.07 484.75V412.5H3356.82V545H3333.07V526H3331.57C3330.57 528 3328.65 530.75 3325.82 534.25C3322.99 537.583 3318.99 540.667 3313.82 543.5C3308.65 546.167 3301.9 547.5 3293.57 547.5ZM3449.42 547.5C3439.42 547.5 3430.67 545.583 3423.17 541.75C3415.67 537.75 3409.42 532.5 3404.42 526C3399.42 519.333 3395.67 511.917 3393.17 503.75C3390.67 495.583 3389.42 487.25 3389.42 478.75C3389.42 470.25 3390.67 461.917 3393.17 453.75C3395.67 445.583 3399.42 438.25 3404.42 431.75C3409.42 425.083 3415.67 419.833 3423.17 416C3430.67 412 3439.42 410 3449.42 410C3457.75 410 3464.75 411.333 3470.42 414C3476.09 416.667 3480.67 419.833 3484.17 423.5C3487.67 427 3490.34 430.333 3492.17 433.5H3493.67V355H3517.42V545H3493.67V524H3492.17C3490.34 527.167 3487.67 530.583 3484.17 534.25C3480.67 537.917 3476.09 541.083 3470.42 543.75C3464.75 546.25 3457.75 547.5 3449.42 547.5ZM3453.42 527.25C3462.25 527.25 3469.59 524.917 3475.42 520.25C3481.42 515.417 3485.84 509.333 3488.67 502C3491.67 494.5 3493.17 486.75 3493.17 478.75C3493.17 470.583 3491.67 462.833 3488.67 455.5C3485.84 448.167 3481.42 442.167 3475.42 437.5C3469.59 432.667 3462.25 430.25 3453.42 430.25C3444.59 430.25 3437.17 432.667 3431.17 437.5C3425.17 442.167 3420.67 448.167 3417.67 455.5C3414.84 462.833 3413.42 470.583 3413.42 478.75C3413.42 486.75 3414.84 494.5 3417.67 502C3420.67 509.333 3425.17 515.417 3431.17 520.25C3437.17 524.917 3444.59 527.25 3453.42 527.25ZM3570.51 387.25C3566.01 387.25 3562.26 385.75 3559.26 382.75C3556.42 379.75 3555.01 376.167 3555.01 372C3555.01 367.667 3556.42 364 3559.26 361C3562.26 358 3566.01 356.5 3570.51 356.5C3574.84 356.5 3578.51 358 3581.51 361C3584.51 364 3586.01 367.667 3586.01 372C3586.01 376.167 3584.51 379.75 3581.51 382.75C3578.51 385.75 3574.84 387.25 3570.51 387.25ZM3558.76 545V412.5H3582.51V545H3558.76ZM3683.68 547.5C3669.51 547.5 3657.59 544.25 3647.93 537.75C3638.26 531.083 3630.93 522.5 3625.93 512C3620.93 501.5 3618.43 490.417 3618.43 478.75C3618.43 466.917 3620.93 455.833 3625.93 445.5C3630.93 435 3638.26 426.5 3647.93 420C3657.59 413.333 3669.51 410 3683.68 410C3697.84 410 3709.76 413.333 3719.43 420C3729.09 426.5 3736.43 435 3741.43 445.5C3746.43 455.833 3748.93 466.917 3748.93 478.75C3748.93 490.417 3746.43 501.5 3741.43 512C3736.43 522.5 3729.09 531.083 3719.43 537.75C3709.76 544.25 3697.84 547.5 3683.68 547.5ZM3683.68 526.75C3692.68 526.75 3700.18 524.5 3706.18 520C3712.34 515.333 3716.93 509.333 3719.93 502C3723.09 494.667 3724.68 486.917 3724.68 478.75C3724.68 470.417 3723.09 462.667 3719.93 455.5C3716.93 448.167 3712.34 442.25 3706.18 437.75C3700.18 433.083 3692.68 430.75 3683.68 430.75C3674.84 430.75 3667.34 433.083 3661.18 437.75C3655.01 442.25 3650.34 448.167 3647.18 455.5C3644.18 462.667 3642.68 470.417 3642.68 478.75C3642.68 486.917 3644.18 494.667 3647.18 502C3650.34 509.333 3655.01 515.333 3661.18 520C3667.34 524.5 3674.84 526.75 3683.68 526.75Z" fill="#746E6E"/>
<path d="M1732 979C1696 979 1664.6 972.6 1637.8 959.8C1611 947 1588.8 929.8 1571.2 908.2C1553.6 886.2 1540.4 861.8 1531.6 835C1523.2 807.8 1519 780 1519 751.6C1519 723.2 1523.2 695.4 1531.6 668.2C1540.4 641 1553.6 616.6 1571.2 595C1589.2 573 1611.6 555.6 1638.4 542.8C1665.6 529.6 1697.4 523 1733.8 523C1761.8 523 1785.8 526.6 1805.8 533.8C1826.2 541 1843.2 550.2 1856.8 561.4C1870.4 572.6 1881.4 584.6 1889.8 597.4C1898.2 609.8 1904.6 621.6 1909 632.8C1913.4 644 1916.2 653.2 1917.4 660.4C1919 667.6 1919.8 671.2 1919.8 671.2H1860.4C1860.4 671.2 1859.6 668 1858 661.6C1856.4 655.2 1853.2 647.4 1848.4 638.2C1843.6 628.6 1836.4 619.2 1826.8 610C1817.6 600.4 1805.4 592.4 1790.2 586C1775.4 579.6 1756.8 576.4 1734.4 576.4C1708 576.4 1685 581.4 1665.4 591.4C1645.8 601.4 1629.6 614.8 1616.8 631.6C1604 648 1594.4 666.6 1588 687.4C1581.6 707.8 1578.4 728.8 1578.4 750.4C1578.4 772.4 1581.6 794 1588 815.2C1594.4 836 1604 854.8 1616.8 871.6C1630 888 1646.2 901.2 1665.4 911.2C1684.6 920.8 1706.8 925.6 1732 925.6C1773.2 925.6 1805.8 913.6 1829.8 889.6C1854.2 865.2 1867.4 832.4 1869.4 791.2H1737.4V742.6H1925.8V773.2C1925.8 818.8 1917 856.8 1899.4 887.2C1882.2 917.6 1859 940.6 1829.8 956.2C1800.6 971.4 1768 979 1732 979ZM2178.52 979C2144.52 979 2115.92 971.2 2092.72 955.6C2069.52 939.6 2051.92 919 2039.92 893.8C2027.92 868.6 2021.92 842 2021.92 814C2021.92 785.6 2027.92 759 2039.92 734.2C2051.92 709 2069.52 688.6 2092.72 673C2115.92 657 2144.52 649 2178.52 649C2212.52 649 2241.12 657 2264.32 673C2287.52 688.6 2305.12 709 2317.12 734.2C2329.12 759 2335.12 785.6 2335.12 814C2335.12 842 2329.12 868.6 2317.12 893.8C2305.12 919 2287.52 939.6 2264.32 955.6C2241.12 971.2 2212.52 979 2178.52 979ZM2178.52 929.2C2200.12 929.2 2218.12 923.8 2232.52 913C2247.32 901.8 2258.32 887.4 2265.52 869.8C2273.12 852.2 2276.92 833.6 2276.92 814C2276.92 794 2273.12 775.4 2265.52 758.2C2258.32 740.6 2247.32 726.4 2232.52 715.6C2218.12 704.4 2200.12 698.8 2178.52 698.8C2157.32 698.8 2139.32 704.4 2124.52 715.6C2109.72 726.4 2098.52 740.6 2090.92 758.2C2083.72 775.4 2080.12 794 2080.12 814C2080.12 833.6 2083.72 852.2 2090.92 869.8C2098.52 887.4 2109.72 901.8 2124.52 913C2139.32 923.8 2157.32 929.2 2178.52 929.2ZM3977.31 979C3941.31 979 3909.91 972.6 3883.11 959.8C3856.31 947 3834.11 929.8 3816.51 908.2C3798.91 886.2 3785.71 861.8 3776.91 835C3768.51 807.8 3764.31 780 3764.31 751.6C3764.31 723.2 3768.51 695.4 3776.91 668.2C3785.71 641 3798.91 616.6 3816.51 595C3834.51 573 3856.91 555.6 3883.71 542.8C3910.91 529.6 3942.71 523 3979.11 523C4007.11 523 4031.11 526.6 4051.11 533.8C4071.51 541 4088.51 550.2 4102.11 561.4C4115.71 572.6 4126.71 584.6 4135.11 597.4C4143.51 609.8 4149.91 621.6 4154.31 632.8C4158.71 644 4161.51 653.2 4162.71 660.4C4164.31 667.6 4165.11 671.2 4165.11 671.2H4105.71C4105.71 671.2 4104.91 668 4103.31 661.6C4101.71 655.2 4098.51 647.4 4093.71 638.2C4088.91 628.6 4081.71 619.2 4072.11 610C4062.91 600.4 4050.71 592.4 4035.51 586C4020.71 579.6 4002.11 576.4 3979.71 576.4C3953.31 576.4 3930.31 581.4 3910.71 591.4C3891.11 601.4 3874.91 614.8 3862.11 631.6C3849.31 648 3839.71 666.6 3833.31 687.4C3826.91 707.8 3823.71 728.8 3823.71 750.4C3823.71 772.4 3826.91 794 3833.31 815.2C3839.71 836 3849.31 854.8 3862.11 871.6C3875.31 888 3891.51 901.2 3910.71 911.2C3929.91 920.8 3952.11 925.6 3977.31 925.6C4018.51 925.6 4051.11 913.6 4075.11 889.6C4099.51 865.2 4112.71 832.4 4114.71 791.2H3982.71V742.6H4171.11V773.2C4171.11 818.8 4162.31 856.8 4144.71 887.2C4127.51 917.6 4104.31 940.6 4075.11 956.2C4045.91 971.4 4013.31 979 3977.31 979ZM4423.83 979C4389.83 979 4361.23 971.2 4338.03 955.6C4314.83 939.6 4297.23 919 4285.23 893.8C4273.23 868.6 4267.23 842 4267.23 814C4267.23 785.6 4273.23 759 4285.23 734.2C4297.23 709 4314.83 688.6 4338.03 673C4361.23 657 4389.83 649 4423.83 649C4457.83 649 4486.43 657 4509.63 673C4532.83 688.6 4550.43 709 4562.43 734.2C4574.43 759 4580.43 785.6 4580.43 814C4580.43 842 4574.43 868.6 4562.43 893.8C4550.43 919 4532.83 939.6 4509.63 955.6C4486.43 971.2 4457.83 979 4423.83 979ZM4423.83 929.2C4445.43 929.2 4463.43 923.8 4477.83 913C4492.63 901.8 4503.63 887.4 4510.83 869.8C4518.43 852.2 4522.23 833.6 4522.23 814C4522.23 794 4518.43 775.4 4510.83 758.2C4503.63 740.6 4492.63 726.4 4477.83 715.6C4463.43 704.4 4445.43 698.8 4423.83 698.8C4402.63 698.8 4384.63 704.4 4369.83 715.6C4355.03 726.4 4343.83 740.6 4336.23 758.2C4329.03 775.4 4325.43 794 4325.43 814C4325.43 833.6 4329.03 852.2 4336.23 869.8C4343.83 887.4 4355.03 901.8 4369.83 913C4384.63 923.8 4402.63 929.2 4423.83 929.2Z" fill="white"/>
<path d="M2448.88 973V529H2526.28L2657.08 793L2787.28 529H2864.68V973H2807.08V615.4L2684.68 859H2628.88L2506.48 614.2V973H2448.88ZM3122.41 649C3142.41 649 3159.21 652.2 3172.81 658.6C3186.41 665 3197.41 672.6 3205.81 681.4C3214.21 689.8 3220.61 697.8 3225.01 705.4H3228.61V655H3285.61V973H3228.61V922.6H3225.01C3220.61 930.2 3214.21 938.4 3205.81 947.2C3197.41 956 3186.41 963.6 3172.81 970C3159.21 976 3142.41 979 3122.41 979C3098.41 979 3077.41 974.4 3059.41 965.2C3041.41 955.6 3026.41 943 3014.41 927.4C3002.41 911.4 2993.41 893.6 2987.41 874C2981.41 854.4 2978.41 834.4 2978.41 814C2978.41 793.6 2981.41 773.6 2987.41 754C2993.41 734.4 3002.41 716.8 3014.41 701.2C3026.41 685.2 3041.41 672.6 3059.41 663.4C3077.41 653.8 3098.41 649 3122.41 649ZM3132.01 697.6C3110.81 697.6 3093.01 703.4 3078.61 715C3064.21 726.2 3053.41 740.6 3046.21 758.2C3039.41 775.8 3036.01 794.4 3036.01 814C3036.01 833.2 3039.41 851.8 3046.21 869.8C3053.41 887.4 3064.21 902 3078.61 913.6C3093.01 924.8 3110.81 930.4 3132.01 930.4C3153.21 930.4 3170.81 924.8 3184.81 913.6C3199.21 902 3209.81 887.4 3216.61 869.8C3223.81 851.8 3227.41 833.2 3227.41 814C3227.41 794.4 3223.81 775.8 3216.61 758.2C3209.81 740.6 3199.21 726.2 3184.81 715C3170.81 703.4 3153.21 697.6 3132.01 697.6ZM3399.37 973V655H3456.37V701.2H3459.97C3462.77 696.4 3467.37 689.8 3473.77 681.4C3480.57 673 3490.17 665.6 3502.57 659.2C3514.97 652.4 3530.57 649 3549.37 649C3572.57 649 3592.37 654.4 3608.77 665.2C3625.17 675.6 3637.57 689.8 3645.97 707.8C3654.77 725.8 3659.17 746 3659.17 768.4V973H3602.17V772C3602.17 750.8 3596.17 733.2 3584.17 719.2C3572.57 705.2 3555.57 698.2 3533.17 698.2C3515.17 698.2 3500.57 702.8 3489.37 712C3478.17 720.8 3469.77 732.6 3464.17 747.4C3458.97 761.8 3456.37 777.2 3456.37 793.6V973H3399.37Z" fill="#7E7B7B"/>
<path d="M1247.25 295H1415.37V1091H1247.25M238.5 295H70.375V1091H238.5" stroke="white" stroke-width="30"/>
<path d="M1114.19 1114.19C1319.3 909.071 1319.3 576.512 1114.19 371.396C909.071 166.28 576.512 166.28 371.396 371.396C166.279 576.512 166.279 909.071 371.396 1114.19" stroke="white" stroke-width="30"/>
<path d="M410.476 444.177C240.316 627.632 251.095 914.294 434.551 1084.45C618.007 1254.61 904.668 1243.83 1074.83 1060.38C1244.99 876.923 1234.21 590.261 1050.75 420.102" stroke="white" stroke-width="30"/>
</svg>
