<svg width="100%" style="" viewBox="0 0 3755 1275" fill="none" xmlns="http://www.w3.org/2000/svg">
<path d="M1558.4 826C1536.8 826 1516.53 821.867 1497.6 813.6C1478.93 805.333 1462.4 793.867 1448 779.2C1433.87 764.267 1422.8 747.2 1414.8 728C1406.8 708.533 1402.8 687.733 1402.8 665.6C1402.8 643.733 1406.67 623.2 1414.4 604C1422.4 584.533 1433.47 567.467 1447.6 552.8C1462 538.133 1478.53 526.667 1497.2 518.4C1516.13 509.867 1536.53 505.6 1558.4 505.6C1577.6 505.6 1595.07 508.4 1610.8 514C1626.53 519.6 1641.73 528.533 1656.4 540.8C1658.8 542.667 1660.13 544.933 1660.4 547.6C1660.93 550 1660.67 552.4 1659.6 554.8C1658.53 556.933 1656.93 558.533 1654.8 559.6C1654.27 561.733 1652.93 563.333 1650.8 564.4C1648.67 565.467 1646.13 565.867 1643.2 565.6C1640.53 565.333 1637.87 564.133 1635.2 562C1624.8 552.933 1613.47 546.267 1601.2 542C1588.93 537.467 1574.67 535.2 1558.4 535.2C1541.07 535.2 1524.8 538.667 1509.6 545.6C1494.67 552.533 1481.47 562 1470 574C1458.53 586 1449.47 599.867 1442.8 615.6C1436.4 631.333 1433.2 648 1433.2 665.6C1433.2 683.733 1436.4 700.667 1442.8 716.4C1449.47 732.133 1458.53 746 1470 758C1481.47 770 1494.67 779.467 1509.6 786.4C1524.8 793.067 1541.07 796.4 1558.4 796.4C1573.07 796.4 1586.93 794 1600 789.2C1613.07 784.4 1625.47 777.467 1637.2 768.4C1640.4 765.733 1643.73 764.667 1647.2 765.2C1650.93 765.733 1654.13 767.333 1656.8 770C1659.47 772.667 1660.8 776.133 1660.8 780.4C1660.8 782.533 1660.53 784.533 1660 786.4C1659.47 788 1658.27 789.733 1656.4 791.6C1642.8 804.133 1627.6 813.067 1610.8 818.4C1594 823.467 1576.53 826 1558.4 826ZM1660.8 780.4L1630.4 774V693.6H1568C1563.47 693.6 1559.73 692.267 1556.8 689.6C1553.87 686.933 1552.4 683.6 1552.4 679.6C1552.4 675.6 1553.87 672.4 1556.8 670C1559.73 667.333 1563.47 666 1568 666H1645.2C1649.73 666 1653.47 667.467 1656.4 670.4C1659.33 673.067 1660.8 676.667 1660.8 681.2V780.4ZM1804.62 824C1783.28 824 1764.22 819.2 1747.42 809.6C1730.62 800 1717.42 786.8 1707.82 770C1698.22 753.2 1693.42 734.133 1693.42 712.8C1693.42 691.2 1698.22 672 1707.82 655.2C1717.42 638.4 1730.62 625.2 1747.42 615.6C1764.22 606 1783.28 601.2 1804.62 601.2C1825.95 601.2 1844.88 606 1861.42 615.6C1878.22 625.2 1891.42 638.4 1901.02 655.2C1910.62 672 1915.55 691.2 1915.82 712.8C1915.82 734.133 1910.88 753.2 1901.02 770C1891.42 786.8 1878.22 800 1861.42 809.6C1844.88 819.2 1825.95 824 1804.62 824ZM1804.62 796C1820.08 796 1833.95 792.4 1846.22 785.2C1858.48 778 1868.08 768.133 1875.02 755.6C1881.95 743.067 1885.42 728.8 1885.42 712.8C1885.42 696.8 1881.95 682.533 1875.02 670C1868.08 657.2 1858.48 647.2 1846.22 640C1833.95 632.8 1820.08 629.2 1804.62 629.2C1789.15 629.2 1775.28 632.8 1763.02 640C1750.75 647.2 1741.02 657.2 1733.82 670C1726.88 682.533 1723.42 696.8 1723.42 712.8C1723.42 728.8 1726.88 743.067 1733.82 755.6C1741.02 768.133 1750.75 778 1763.02 785.2C1775.28 792.4 1789.15 796 1804.62 796ZM1995.32 822C1991.05 822 1987.32 820.533 1984.12 817.6C1981.19 814.4 1979.72 810.667 1979.72 806.4V525.2C1979.72 520.667 1981.19 516.933 1984.12 514C1987.32 511.067 1991.05 509.6 1995.32 509.6C2001.72 509.6 2006.39 512.267 2009.32 517.6L2144.12 785.6H2130.52L2262.92 517.6C2266.12 512.267 2270.79 509.6 2276.92 509.6C2281.19 509.6 2284.79 511.067 2287.72 514C2290.65 516.933 2292.12 520.667 2292.12 525.2V806.4C2292.12 810.667 2290.65 814.4 2287.72 817.6C2284.79 820.533 2281.19 822 2276.92 822C2272.39 822 2268.52 820.533 2265.32 817.6C2262.39 814.4 2260.92 810.667 2260.92 806.4V565.6L2267.72 566L2149.72 807.2C2146.79 812.267 2142.25 814.8 2136.12 814.8C2129.45 814.8 2124.65 811.6 2121.72 805.2L2002.92 567.6L2010.92 565.6V806.4C2010.92 810.667 2009.32 814.4 2006.12 817.6C2003.19 820.533 1999.59 822 1995.32 822ZM2464.7 824C2444.16 824 2425.76 819.2 2409.5 809.6C2393.23 799.733 2380.3 786.4 2370.7 769.6C2361.36 752.8 2356.7 733.867 2356.7 712.8C2356.7 691.467 2361.5 672.4 2371.1 655.6C2380.96 638.8 2394.3 625.6 2411.1 616C2427.9 606.133 2446.83 601.2 2467.9 601.2C2488.96 601.2 2507.76 606.133 2524.3 616C2541.1 625.6 2554.3 638.8 2563.9 655.6C2573.76 672.4 2578.83 691.467 2579.1 712.8L2566.7 722.4C2566.7 741.6 2562.16 758.933 2553.1 774.4C2544.3 789.6 2532.16 801.733 2516.7 810.8C2501.5 819.6 2484.16 824 2464.7 824ZM2467.9 796C2483.36 796 2497.1 792.4 2509.1 785.2C2521.36 778 2530.96 768.133 2537.9 755.6C2545.1 742.8 2548.7 728.533 2548.7 712.8C2548.7 696.8 2545.1 682.533 2537.9 670C2530.96 657.467 2521.36 647.6 2509.1 640.4C2497.1 632.933 2483.36 629.2 2467.9 629.2C2452.7 629.2 2438.96 632.933 2426.7 640.4C2414.43 647.6 2404.7 657.467 2397.5 670C2390.3 682.533 2386.7 696.8 2386.7 712.8C2386.7 728.533 2390.3 742.8 2397.5 755.6C2404.7 768.133 2414.43 778 2426.7 785.2C2438.96 792.4 2452.7 796 2467.9 796ZM2563.5 822C2558.96 822 2555.23 820.667 2552.3 818C2549.36 815.067 2547.9 811.333 2547.9 806.8V738.4L2555.5 706.8L2579.1 712.8V806.8C2579.1 811.333 2577.63 815.067 2574.7 818C2571.76 820.667 2568.03 822 2563.5 822ZM2826.6 822C2822.07 822 2818.33 820.533 2815.4 817.6C2812.47 814.667 2811 811.067 2811 806.8V702.8C2811 686.267 2807.8 672.667 2801.4 662C2795.27 651.333 2786.73 643.333 2775.8 638C2765.13 632.667 2753 630 2739.4 630C2726.33 630 2714.47 632.533 2703.8 637.6C2693.4 642.667 2685.13 649.6 2679 658.4C2672.87 667.2 2669.8 677.2 2669.8 688.4H2647.8C2648.33 671.6 2652.87 656.667 2661.4 643.6C2669.93 630.267 2681.27 619.867 2695.4 612.4C2709.53 604.667 2725.27 600.8 2742.6 600.8C2761.53 600.8 2778.47 604.8 2793.4 612.8C2808.33 620.533 2820.07 632 2828.6 647.2C2837.4 662.4 2841.8 680.933 2841.8 702.8V806.8C2841.8 811.067 2840.33 814.667 2837.4 817.6C2834.47 820.533 2830.87 822 2826.6 822ZM2654.6 822C2649.8 822 2645.93 820.667 2643 818C2640.33 815.067 2639 811.333 2639 806.8V618.8C2639 614 2640.33 610.267 2643 607.6C2645.93 604.667 2649.8 603.2 2654.6 603.2C2659.13 603.2 2662.73 604.667 2665.4 607.6C2668.33 610.267 2669.8 614 2669.8 618.8V806.8C2669.8 811.333 2668.33 815.067 2665.4 818C2662.73 820.667 2659.13 822 2654.6 822ZM3054.1 826C3032.5 826 3012.24 821.867 2993.3 813.6C2974.64 805.333 2958.1 793.867 2943.7 779.2C2929.57 764.267 2918.5 747.2 2910.5 728C2902.5 708.533 2898.5 687.733 2898.5 665.6C2898.5 643.733 2902.37 623.2 2910.1 604C2918.1 584.533 2929.17 567.467 2943.3 552.8C2957.7 538.133 2974.24 526.667 2992.9 518.4C3011.84 509.867 3032.24 505.6 3054.1 505.6C3073.3 505.6 3090.77 508.4 3106.5 514C3122.24 519.6 3137.44 528.533 3152.1 540.8C3154.5 542.667 3155.84 544.933 3156.1 547.6C3156.64 550 3156.37 552.4 3155.3 554.8C3154.24 556.933 3152.64 558.533 3150.5 559.6C3149.97 561.733 3148.64 563.333 3146.5 564.4C3144.37 565.467 3141.84 565.867 3138.9 565.6C3136.24 565.333 3133.57 564.133 3130.9 562C3120.5 552.933 3109.17 546.267 3096.9 542C3084.64 537.467 3070.37 535.2 3054.1 535.2C3036.77 535.2 3020.5 538.667 3005.3 545.6C2990.37 552.533 2977.17 562 2965.7 574C2954.24 586 2945.17 599.867 2938.5 615.6C2932.1 631.333 2928.9 648 2928.9 665.6C2928.9 683.733 2932.1 700.667 2938.5 716.4C2945.17 732.133 2954.24 746 2965.7 758C2977.17 770 2990.37 779.467 3005.3 786.4C3020.5 793.067 3036.77 796.4 3054.1 796.4C3068.77 796.4 3082.64 794 3095.7 789.2C3108.77 784.4 3121.17 777.467 3132.9 768.4C3136.1 765.733 3139.44 764.667 3142.9 765.2C3146.64 765.733 3149.84 767.333 3152.5 770C3155.17 772.667 3156.5 776.133 3156.5 780.4C3156.5 782.533 3156.24 784.533 3155.7 786.4C3155.17 788 3153.97 789.733 3152.1 791.6C3138.5 804.133 3123.3 813.067 3106.5 818.4C3089.7 823.467 3072.24 826 3054.1 826ZM3156.5 780.4L3126.1 774V693.6H3063.7C3059.17 693.6 3055.44 692.267 3052.5 689.6C3049.57 686.933 3048.1 683.6 3048.1 679.6C3048.1 675.6 3049.57 672.4 3052.5 670C3055.44 667.333 3059.17 666 3063.7 666H3140.9C3145.44 666 3149.17 667.467 3152.1 670.4C3155.04 673.067 3156.5 676.667 3156.5 681.2V780.4ZM3300.32 824C3278.99 824 3259.92 819.2 3243.12 809.6C3226.32 800 3213.12 786.8 3203.52 770C3193.92 753.2 3189.12 734.133 3189.12 712.8C3189.12 691.2 3193.92 672 3203.52 655.2C3213.12 638.4 3226.32 625.2 3243.12 615.6C3259.92 606 3278.99 601.2 3300.32 601.2C3321.65 601.2 3340.59 606 3357.12 615.6C3373.92 625.2 3387.12 638.4 3396.72 655.2C3406.32 672 3411.25 691.2 3411.52 712.8C3411.52 734.133 3406.59 753.2 3396.72 770C3387.12 786.8 3373.92 800 3357.12 809.6C3340.59 819.2 3321.65 824 3300.32 824ZM3300.32 796C3315.79 796 3329.65 792.4 3341.92 785.2C3354.19 778 3363.79 768.133 3370.72 755.6C3377.65 743.067 3381.12 728.8 3381.12 712.8C3381.12 696.8 3377.65 682.533 3370.72 670C3363.79 657.2 3354.19 647.2 3341.92 640C3329.65 632.8 3315.79 629.2 3300.32 629.2C3284.85 629.2 3270.99 632.8 3258.72 640C3246.45 647.2 3236.72 657.2 3229.52 670C3222.59 682.533 3219.12 696.8 3219.12 712.8C3219.12 728.8 3222.59 743.067 3229.52 755.6C3236.72 768.133 3246.45 778 3258.72 785.2C3270.99 792.4 3284.85 796 3300.32 796ZM1490.4 1270C1474.67 1270 1459.07 1267.33 1443.6 1262C1428.13 1256.67 1415.6 1248.67 1406 1238C1403.07 1234.8 1401.87 1231.2 1402.4 1227.2C1402.93 1223.2 1404.93 1219.73 1408.4 1216.8C1412.13 1214.13 1416 1213.07 1420 1213.6C1424 1214.13 1427.33 1215.87 1430 1218.8C1436.4 1226.27 1444.8 1232 1455.2 1236C1465.87 1240 1477.6 1242 1490.4 1242C1510.13 1242 1524.4 1238.67 1533.2 1232C1542 1225.07 1546.53 1216.8 1546.8 1207.2C1546.8 1197.6 1542.27 1189.73 1533.2 1183.6C1524.13 1177.2 1509.2 1172.27 1488.4 1168.8C1461.47 1164.53 1441.73 1157.07 1429.2 1146.4C1416.67 1135.73 1410.4 1123.07 1410.4 1108.4C1410.4 1094.8 1414 1083.47 1421.2 1074.4C1428.4 1065.33 1438 1058.53 1450 1054C1462 1049.47 1475.2 1047.2 1489.6 1047.2C1507.47 1047.2 1522.8 1050.27 1535.6 1056.4C1548.67 1062.53 1559.2 1070.8 1567.2 1081.2C1569.87 1084.67 1570.93 1088.27 1570.4 1092C1569.87 1095.73 1567.73 1098.8 1564 1101.2C1560.8 1103.07 1557.07 1103.73 1552.8 1103.2C1548.8 1102.4 1545.33 1100.4 1542.4 1097.2C1535.73 1089.47 1528 1083.87 1519.2 1080.4C1510.4 1076.67 1500.27 1074.8 1488.8 1074.8C1474.13 1074.8 1462.4 1077.87 1453.6 1084C1444.8 1089.87 1440.4 1097.33 1440.4 1106.4C1440.4 1112.53 1442 1117.87 1445.2 1122.4C1448.67 1126.93 1454.4 1130.93 1462.4 1134.4C1470.67 1137.87 1482.13 1140.8 1496.8 1143.2C1516.8 1146.4 1532.53 1151.2 1544 1157.6C1555.73 1163.73 1564 1171.07 1568.8 1179.6C1573.87 1187.87 1576.4 1196.93 1576.4 1206.8C1576.4 1219.33 1572.67 1230.4 1565.2 1240C1558 1249.33 1547.87 1256.67 1534.8 1262C1522 1267.33 1507.2 1270 1490.4 1270ZM1715.23 1268C1701.09 1268 1688.43 1264.67 1677.23 1258C1666.29 1251.33 1657.63 1242.27 1651.23 1230.8C1644.83 1219.07 1641.63 1205.73 1641.63 1190.8V995.2C1641.63 990.667 1642.96 986.933 1645.63 984C1648.56 981.067 1652.29 979.6 1656.83 979.6C1661.36 979.6 1665.09 981.067 1668.03 984C1670.96 986.933 1672.43 990.667 1672.43 995.2V1190.8C1672.43 1204.4 1676.43 1215.6 1684.43 1224.4C1692.43 1232.93 1702.69 1237.2 1715.23 1237.2H1726.03C1730.29 1237.2 1733.76 1238.67 1736.43 1241.6C1739.09 1244.53 1740.43 1248.27 1740.43 1252.8C1740.43 1257.33 1738.83 1261.07 1735.63 1264C1732.43 1266.67 1728.43 1268 1723.63 1268H1715.23ZM1615.63 1084C1611.63 1084 1608.29 1082.8 1605.63 1080.4C1602.96 1077.73 1601.63 1074.53 1601.63 1070.8C1601.63 1066.8 1602.96 1063.6 1605.63 1061.2C1608.29 1058.53 1611.63 1057.2 1615.63 1057.2H1717.63C1721.63 1057.2 1724.96 1058.53 1727.63 1061.2C1730.29 1063.6 1731.63 1066.8 1731.63 1070.8C1731.63 1074.53 1730.29 1077.73 1727.63 1080.4C1724.96 1082.8 1721.63 1084 1717.63 1084H1615.63ZM1885.76 1270.4C1866.83 1270.4 1849.9 1266.53 1834.96 1258.8C1820.03 1250.8 1808.16 1239.2 1799.36 1224C1790.83 1208.8 1786.56 1190.27 1786.56 1168.4V1064.4C1786.56 1060.13 1788.03 1056.53 1790.96 1053.6C1793.9 1050.67 1797.5 1049.2 1801.76 1049.2C1806.3 1049.2 1810.03 1050.67 1812.96 1053.6C1815.9 1056.53 1817.36 1060.13 1817.36 1064.4V1168.4C1817.36 1184.93 1820.43 1198.53 1826.56 1209.2C1832.96 1219.87 1841.5 1227.87 1852.16 1233.2C1863.1 1238.53 1875.36 1241.2 1888.96 1241.2C1902.03 1241.2 1913.76 1238.67 1924.16 1233.6C1934.83 1228.53 1943.23 1221.6 1949.36 1212.8C1955.5 1204 1958.56 1194 1958.56 1182.8H1980.56C1979.76 1199.6 1975.1 1214.67 1966.56 1228C1958.3 1241.07 1947.1 1251.47 1932.96 1259.2C1918.83 1266.67 1903.1 1270.4 1885.76 1270.4ZM1973.76 1268C1969.23 1268 1965.5 1266.67 1962.56 1264C1959.9 1261.07 1958.56 1257.2 1958.56 1252.4V1064.4C1958.56 1059.87 1959.9 1056.27 1962.56 1053.6C1965.5 1050.67 1969.23 1049.2 1973.76 1049.2C1978.3 1049.2 1982.03 1050.67 1984.96 1053.6C1987.9 1056.27 1989.36 1059.87 1989.36 1064.4V1252.4C1989.36 1257.2 1987.9 1261.07 1984.96 1264C1982.03 1266.67 1978.3 1268 1973.76 1268ZM2160.87 1270C2139.8 1270 2120.87 1265.2 2104.07 1255.6C2087.27 1245.73 2073.93 1232.4 2064.07 1215.6C2054.47 1198.8 2049.67 1179.73 2049.67 1158.4C2049.67 1137.33 2054.33 1118.4 2063.67 1101.6C2073.27 1084.8 2086.2 1071.6 2102.47 1062C2118.73 1052.13 2137.13 1047.2 2157.67 1047.2C2175.53 1047.2 2191.67 1051.07 2206.07 1058.8C2220.47 1066.27 2232.07 1076.27 2240.87 1088.8V971.2C2240.87 966.4 2242.33 962.667 2245.27 960C2248.2 957.067 2251.93 955.6 2256.47 955.6C2261 955.6 2264.73 957.067 2267.67 960C2270.6 962.667 2272.07 966.4 2272.07 971.2V1160C2271.53 1180.8 2266.33 1199.6 2256.47 1216.4C2246.87 1232.93 2233.67 1246 2216.87 1255.6C2200.33 1265.2 2181.67 1270 2160.87 1270ZM2160.87 1242C2176.33 1242 2190.07 1238.4 2202.07 1231.2C2214.33 1223.73 2223.93 1213.73 2230.87 1201.2C2238.07 1188.67 2241.67 1174.4 2241.67 1158.4C2241.67 1142.67 2238.07 1128.53 2230.87 1116C2223.93 1103.2 2214.33 1093.2 2202.07 1086C2190.07 1078.8 2176.33 1075.2 2160.87 1075.2C2145.67 1075.2 2131.93 1078.8 2119.67 1086C2107.4 1093.2 2097.67 1103.2 2090.47 1116C2083.27 1128.53 2079.67 1142.67 2079.67 1158.4C2079.67 1174.4 2083.27 1188.67 2090.47 1201.2C2097.67 1213.73 2107.4 1223.73 2119.67 1231.2C2131.93 1238.4 2145.67 1242 2160.87 1242ZM2366.08 1268C2361.28 1268 2357.41 1266.67 2354.48 1264C2351.81 1261.07 2350.48 1257.2 2350.48 1252.4V1064.8C2350.48 1060 2351.81 1056.27 2354.48 1053.6C2357.41 1050.67 2361.28 1049.2 2366.08 1049.2C2370.61 1049.2 2374.21 1050.67 2376.88 1053.6C2379.81 1056.27 2381.28 1060 2381.28 1064.8V1252.4C2381.28 1257.2 2379.81 1261.07 2376.88 1264C2374.21 1266.67 2370.61 1268 2366.08 1268ZM2365.68 1007.6C2359.81 1007.6 2354.74 1005.47 2350.48 1001.2C2346.21 996.933 2344.08 991.733 2344.08 985.6C2344.08 978.933 2346.21 973.733 2350.48 970C2355.01 966 2360.21 964 2366.08 964C2371.68 964 2376.61 966 2380.88 970C2385.41 973.733 2387.68 978.933 2387.68 985.6C2387.68 991.733 2385.54 996.933 2381.28 1001.2C2377.01 1005.47 2371.81 1007.6 2365.68 1007.6ZM2559.3 1270C2537.97 1270 2518.9 1265.2 2502.1 1255.6C2485.3 1246 2472.1 1232.8 2462.5 1216C2452.9 1199.2 2448.1 1180.13 2448.1 1158.8C2448.1 1137.2 2452.9 1118 2462.5 1101.2C2472.1 1084.4 2485.3 1071.2 2502.1 1061.6C2518.9 1052 2537.97 1047.2 2559.3 1047.2C2580.64 1047.2 2599.57 1052 2616.1 1061.6C2632.9 1071.2 2646.1 1084.4 2655.7 1101.2C2665.3 1118 2670.24 1137.2 2670.5 1158.8C2670.5 1180.13 2665.57 1199.2 2655.7 1216C2646.1 1232.8 2632.9 1246 2616.1 1255.6C2599.57 1265.2 2580.64 1270 2559.3 1270ZM2559.3 1242C2574.77 1242 2588.64 1238.4 2600.9 1231.2C2613.17 1224 2622.77 1214.13 2629.7 1201.6C2636.64 1189.07 2640.1 1174.8 2640.1 1158.8C2640.1 1142.8 2636.64 1128.53 2629.7 1116C2622.77 1103.2 2613.17 1093.2 2600.9 1086C2588.64 1078.8 2574.77 1075.2 2559.3 1075.2C2543.84 1075.2 2529.97 1078.8 2517.7 1086C2505.44 1093.2 2495.7 1103.2 2488.5 1116C2481.57 1128.53 2478.1 1142.8 2478.1 1158.8C2478.1 1174.8 2481.57 1189.07 2488.5 1201.6C2495.7 1214.13 2505.44 1224 2517.7 1231.2C2529.97 1238.4 2543.84 1242 2559.3 1242ZM2737.61 1274.4C2731.21 1274.4 2725.74 1272.13 2721.21 1267.6C2716.67 1263.07 2714.41 1257.6 2714.41 1251.2C2714.41 1244.53 2716.67 1238.93 2721.21 1234.4C2726.01 1229.87 2731.47 1227.6 2737.61 1227.6C2744.01 1227.6 2749.47 1230 2754.01 1234.8C2758.54 1239.33 2760.81 1244.8 2760.81 1251.2C2760.81 1257.33 2758.54 1262.8 2754.01 1267.6C2749.74 1272.13 2744.27 1274.4 2737.61 1274.4Z" fill="white"/>
<path d="M947.5 13H1234C1247.81 13 1259 24.1929 1259 38V1234C1259 1247.81 1247.81 1259 1234 1259H947.5M324.5 13H38C24.1929 13 13 24.1929 13 38V1234C13 1247.81 24.1929 1259 38 1259H324.5" stroke="white" stroke-width="25"/>
<path d="M24.5356 22.4644L339.536 337.464L418.286 416.214" stroke="white" stroke-width="30"/>
<path d="M1251.46 1250.53L939.853 938.873L861.951 860.957L823 822" stroke="white" stroke-width="30"/>
<circle cx="618.5" cy="618.5" r="275.5" stroke="white" stroke-width="30"/>
</svg>
